<svg id="visual" viewBox="0 0 1366 768" width="1366" height="768" xmlns="http://www.w3.org/2000/svg" xmlns:xlink="http://www.w3.org/1999/xlink" version="1.1"><rect width="1366" height="768" fill="#001829"></rect><g><g transform="translate(271 487)"><path d="M0 -56L48.5 -28L48.5 28L0 56L-48.5 28L-48.5 -28Z" stroke="#a64829" fill="none" stroke-width="3"></path></g><g transform="translate(278 52)"><path d="M0 -35L30.3 -17.5L30.3 17.5L0 35L-30.3 17.5L-30.3 -17.5Z" stroke="#a64829" fill="none" stroke-width="3"></path></g><g transform="translate(498 117)"><path d="M0 -34L29.4 -17L29.4 17L0 34L-29.4 17L-29.4 -17Z" stroke="#a64829" fill="none" stroke-width="3"></path></g><g transform="translate(750 734)"><path d="M0 -42L36.4 -21L36.4 21L0 42L-36.4 21L-36.4 -21Z" stroke="#a64829" fill="none" stroke-width="3"></path></g><g transform="translate(892 502)"><path d="M0 -48L41.6 -24L41.6 24L0 48L-41.6 24L-41.6 -24Z" stroke="#a64829" fill="none" stroke-width="3"></path></g><g transform="translate(1042 95)"><path d="M0 -38L32.9 -19L32.9 19L0 38L-32.9 19L-32.9 -19Z" stroke="#a64829" fill="none" stroke-width="3"></path></g><g transform="translate(458 629)"><path d="M0 -34L29.4 -17L29.4 17L0 34L-29.4 17L-29.4 -17Z" stroke="#a64829" fill="none" stroke-width="3"></path></g><g transform="translate(442 386)"><path d="M0 -34L29.4 -17L29.4 17L0 34L-29.4 17L-29.4 -17Z" stroke="#a64829" fill="none" stroke-width="3"></path></g><g transform="translate(612 95)"><path d="M0 -43L37.2 -21.5L37.2 21.5L0 43L-37.2 21.5L-37.2 -21.5Z" stroke="#a64829" fill="none" stroke-width="3"></path></g><g transform="translate(752 353)"><path d="M0 -51L44.2 -25.5L44.2 25.5L0 51L-44.2 25.5L-44.2 -25.5Z" stroke="#a64829" fill="none" stroke-width="3"></path></g><g transform="translate(719 172)"><path d="M0 -50L43.3 -25L43.3 25L0 50L-43.3 25L-43.3 -25Z" stroke="#a64829" fill="none" stroke-width="3"></path></g><g transform="translate(30 745)"><path d="M0 -41L35.5 -20.5L35.5 20.5L0 41L-35.5 20.5L-35.5 -20.5Z" stroke="#a64829" fill="none" stroke-width="3"></path></g><g transform="translate(818 228)"><path d="M0 -36L31.2 -18L31.2 18L0 36L-31.2 18L-31.2 -18Z" stroke="#a64829" fill="none" stroke-width="3"></path></g><g transform="translate(297 759)"><path d="M0 -51L44.2 -25.5L44.2 25.5L0 51L-44.2 25.5L-44.2 -25.5Z" stroke="#a64829" fill="none" stroke-width="3"></path></g><g transform="translate(43 125)"><path d="M0 -50L43.3 -25L43.3 25L0 50L-43.3 25L-43.3 -25Z" stroke="#a64829" fill="none" stroke-width="3"></path></g><g transform="translate(1329 50)"><path d="M0 -35L30.3 -17.5L30.3 17.5L0 35L-30.3 17.5L-30.3 -17.5Z" stroke="#a64829" fill="none" stroke-width="3"></path></g><g transform="translate(839 10)"><path d="M0 -34L29.4 -17L29.4 17L0 34L-29.4 17L-29.4 -17Z" stroke="#a64829" fill="none" stroke-width="3"></path></g><g transform="translate(1365 433)"><path d="M0 -34L29.4 -17L29.4 17L0 34L-29.4 17L-29.4 -17Z" stroke="#a64829" fill="none" stroke-width="3"></path></g><g transform="translate(637 583)"><path d="M0 -42L36.4 -21L36.4 21L0 42L-36.4 21L-36.4 -21Z" stroke="#a64829" fill="none" stroke-width="3"></path></g><g transform="translate(966 661)"><path d="M0 -48L41.6 -24L41.6 24L0 48L-41.6 24L-41.6 -24Z" stroke="#a64829" fill="none" stroke-width="3"></path></g><g transform="translate(120 378)"><path d="M0 -53L45.9 -26.5L45.9 26.5L0 53L-45.9 26.5L-45.9 -26.5Z" stroke="#a64829" fill="none" stroke-width="3"></path></g><g transform="translate(1195 205)"><path d="M0 -46L39.8 -23L39.8 23L0 46L-39.8 23L-39.8 -23Z" stroke="#a64829" fill="none" stroke-width="3"></path></g><g transform="translate(367 268)"><path d="M0 -38L32.9 -19L32.9 19L0 38L-32.9 19L-32.9 -19Z" stroke="#a64829" fill="none" stroke-width="3"></path></g><g transform="translate(559 448)"><path d="M0 -37L32 -18.5L32 18.5L0 37L-32 18.5L-32 -18.5Z" stroke="#a64829" fill="none" stroke-width="3"></path></g><g transform="translate(1105 383)"><path d="M0 -36L31.2 -18L31.2 18L0 36L-31.2 18L-31.2 -18Z" stroke="#a64829" fill="none" stroke-width="3"></path></g><g transform="translate(775 494)"><path d="M0 -53L45.9 -26.5L45.9 26.5L0 53L-45.9 26.5L-45.9 -26.5Z" stroke="#a64829" fill="none" stroke-width="3"></path></g><g transform="translate(934 240)"><path d="M0 -42L36.4 -21L36.4 21L0 42L-36.4 21L-36.4 -21Z" stroke="#a64829" fill="none" stroke-width="3"></path></g><g transform="translate(182 753)"><path d="M0 -49L42.4 -24.5L42.4 24.5L0 49L-42.4 24.5L-42.4 -24.5Z" stroke="#a64829" fill="none" stroke-width="3"></path></g><g transform="translate(1352 235)"><path d="M0 -35L30.3 -17.5L30.3 17.5L0 35L-30.3 17.5L-30.3 -17.5Z" stroke="#a64829" fill="none" stroke-width="3"></path></g><g transform="translate(876 122)"><path d="M0 -46L39.8 -23L39.8 23L0 46L-39.8 23L-39.8 -23Z" stroke="#a64829" fill="none" stroke-width="3"></path></g><g transform="translate(589 706)"><path d="M0 -53L45.9 -26.5L45.9 26.5L0 53L-45.9 26.5L-45.9 -26.5Z" stroke="#a64829" fill="none" stroke-width="3"></path></g><g transform="translate(29 260)"><path d="M0 -35L30.3 -17.5L30.3 17.5L0 35L-30.3 17.5L-30.3 -17.5Z" stroke="#a64829" fill="none" stroke-width="3"></path></g><g transform="translate(1333 643)"><path d="M0 -39L33.8 -19.5L33.8 19.5L0 39L-33.8 19.5L-33.8 -19.5Z" stroke="#a64829" fill="none" stroke-width="3"></path></g><g transform="translate(606 261)"><path d="M0 -51L44.2 -25.5L44.2 25.5L0 51L-44.2 25.5L-44.2 -25.5Z" stroke="#a64829" fill="none" stroke-width="3"></path></g><g transform="translate(1186 538)"><path d="M0 -40L34.6 -20L34.6 20L0 40L-34.6 20L-34.6 -20Z" stroke="#a64829" fill="none" stroke-width="3"></path></g><g transform="translate(144 192)"><path d="M0 -49L42.4 -24.5L42.4 24.5L0 49L-42.4 24.5L-42.4 -24.5Z" stroke="#a64829" fill="none" stroke-width="3"></path></g><g transform="translate(1186 671)"><path d="M0 -45L39 -22.5L39 22.5L0 45L-39 22.5L-39 -22.5Z" stroke="#a64829" fill="none" stroke-width="3"></path></g><g transform="translate(155 625)"><path d="M0 -53L45.9 -26.5L45.9 26.5L0 53L-45.9 26.5L-45.9 -26.5Z" stroke="#a64829" fill="none" stroke-width="3"></path></g><g transform="translate(1174 79)"><path d="M0 -45L39 -22.5L39 22.5L0 45L-39 22.5L-39 -22.5Z" stroke="#a64829" fill="none" stroke-width="3"></path></g><g transform="translate(77 537)"><path d="M0 -46L39.8 -23L39.8 23L0 46L-39.8 23L-39.8 -23Z" stroke="#a64829" fill="none" stroke-width="3"></path></g><g transform="translate(687 2)"><path d="M0 -38L32.9 -19L32.9 19L0 38L-32.9 19L-32.9 -19Z" stroke="#a64829" fill="none" stroke-width="3"></path></g><g transform="translate(868 381)"><path d="M0 -52L45 -26L45 26L0 52L-45 26L-45 -26Z" stroke="#a64829" fill="none" stroke-width="3"></path></g><g transform="translate(299 623)"><path d="M0 -48L41.6 -24L41.6 24L0 48L-41.6 24L-41.6 -24Z" stroke="#a64829" fill="none" stroke-width="3"></path></g><g transform="translate(277 179)"><path d="M0 -43L37.2 -21.5L37.2 21.5L0 43L-37.2 21.5L-37.2 -21.5Z" stroke="#a64829" fill="none" stroke-width="3"></path></g><g transform="translate(863 760)"><path d="M0 -34L29.4 -17L29.4 17L0 34L-29.4 17L-29.4 -17Z" stroke="#a64829" fill="none" stroke-width="3"></path></g></g></svg>